<svg width="18" height="18" viewBox="0 0 18 18" fill="none" xmlns="http://www.w3.org/2000/svg">
<path d="M9 0.9C4.52627 0.9 0.9 4.52627 0.9 9C0.9 13.4737 4.52627 17.1 9 17.1C13.4737 17.1 17.1 13.4737 17.1 9C17.1 4.52627 13.4737 0.9 9 0.9ZM9 15.9C5.19523 15.9 2.1 12.8048 2.1 9C2.1 5.19523 5.19523 2.1 9 2.1C12.8048 2.1 15.9 5.19523 15.9 9C15.9 12.8048 12.8048 15.9 9 15.9Z" fill="#121212" stroke="#121212" stroke-width="0.2"/>
<rect x="7.99838" y="6.5" width="1.6" height="7" fill="#121212"/>
<rect x="7.99838" y="4" width="1.6" height="1.6" fill="#121212"/>
</svg>
