<svg t="1730345062412" class="icon" viewBox="0 0 1024 1024" version="1.1" xmlns="http://www.w3.org/2000/svg" p-id="7422" width="32" height="32"><path d="M1024.003 212.48121c-0.250987-28.277564-5.730709-55.186198-16.527161-80.515911-10.881447-25.661697-25.828688-48.459539-44.514739-68.100542-18.854043-19.764996-41.109912-35.380203-66.77261-46.631632C870.526794 5.853703 842.953194 0.165992 813.970666 0.165992h-0.333983c-29.067524 0-56.804115 5.688711-82.7158 16.983137-25.911684 11.253429-48.500537 26.78364-67.519571 46.507638-19.10303 19.643003-34.301258 42.355849-45.513689 68.14354-11.377422 25.911684-17.105131 53.732271-17.105131 82.841793v87.82654h-174.821123v-90.733392c-0.332983-28.069575-6.062692-54.854214-17.025135-80.017937-11.211431-25.703695-26.493655-48.500537-45.428693-68.142539-19.10103-19.723998-41.689883-35.25421-67.518572-46.590634C270.160281 5.770707 242.504685 0.082996 213.603153 0h-0.497975c-29.15052 0-56.890111 5.688711-82.883791 16.983138-25.828688 11.211431-48.418541 26.78264-67.518571 46.507638-19.018034 19.559007-34.134267 42.354849-45.511689 68.142539C5.896701 157.462004 0.166992 185.1166 0.166992 214.101128v0.457976c0 29.066524 5.646713 56.72312 17.024135 82.383817 11.212431 25.539703 26.493655 47.794573 45.593685 66.607617 19.10203 18.851043 41.691883 33.757286 67.436575 44.721729 25.99468 11.043439 53.650276 16.568159 82.799796 16.568159l92.103322 0.082996-0.083995 175.690078h-91.602349c-0.332983-0.081996-0.664966 0-0.996949 0-28.901532 0-56.474132 5.565717-82.302821 16.527161-25.745693 10.964443-48.25155 25.828688-67.435575 44.638733-19.10203 18.813045-34.383254 41.15191-45.593685 66.608618C5.729709 754.047709 0 781.621308 0 810.604836v0.333984c0 29.108522 5.646713 56.887111 17.025135 82.839793 11.211431 25.745693 26.492655 48.294548 45.510689 67.354579 19.185026 19.144028 41.691883 34.339256 67.436576 45.592685 25.911684 11.380422 53.733271 17.067133 82.801795 17.067134h7.391625l0.082995-0.081996c26.410659-0.912954 51.657377-6.520669 75.492167-16.899142 25.663697-11.253429 48.335545-26.451657 67.35358-45.512689 19.10203-19.144028 34.383254-41.691883 45.593684-67.434576 11.378422-26.038678 17.109131-53.733271 17.109131-82.843793v-88.698495h174.903119l-0.082996 88.698495v0.082996c0 29.109522 5.728709 56.808115 17.106131 82.842793 11.212431 25.660697 26.327663 48.291548 45.512689 67.35258 19.017034 19.143028 41.522891 34.383254 67.434576 45.595685 25.828688 11.294426 53.485284 16.981138 82.467812 17.105131h19.437013l-0.416979-0.78796c22.341865-1.951901 43.685782-7.391625 63.782761-16.235176 25.41171-11.294426 47.836571-26.451657 66.604618-45.595684s33.801284-41.646885 44.765726-67.434576c11.043439-26.034678 16.524161-53.650276 16.524161-82.759797v-1.951901c-0.247987-27.904583-5.728709-54.480233-16.524161-79.602958-10.964443-25.495705-26.079676-47.961564-45.179705-67.059594-19.020034-19.061032-41.525891-34.218262-67.020597-45.179706-25.663697-11.046439-52.986309-16.568159-81.555858-16.568159l-90.358412-0.126993 0.082996-175.690078h102.151813v-0.330984c24.248769-1.287935 47.671579-6.602665 69.762457-16.238175 25.494705-10.878448 48.001562-26.035678 67.020597-45.054712 19.10003-19.144028 34.215263-41.605887 45.179705-67.021597 11.126435-25.784691 16.609157-53.066305 16.609157-81.553858v-2.326882zM305.04151 810.93782c0 12.581361-2.407878 24.331764-7.224634 35.543195-4.73476 11.336424-11.294426 21.095929-19.849992 29.608496-8.554566 8.595564-18.188076 15.115232-29.233515 19.89099-10.797452 4.691762-22.671849 7.057642-35.960174 7.057642-12.541363 0-24.167773-2.36488-35.380203-7.140638-11.377422-4.776757-20.67895-11.212431-28.651545-19.560007-7.972595-8.596563-14.36727-18.437064-19.185026-29.856483-4.483772-10.795452-6.89365-22.007882-7.058642-34.008273v-1.534922c0-12.000391 2.324882-23.212821 7.058642-34.177265 4.73376-11.043439 11.212431-20.427963 19.435013-28.317562 8.220583-8.014593 17.771098-14.36827 28.983528-19.144028 10.380473-4.484772 21.425912-6.89265 33.385305-7.060641h93.680243v88.699496z m0.083995-508.556175h-92.019327c-12.623359 0-24.167773-2.36588-35.04722-7.057642-11.211431-4.815755-20.761946-11.129435-29.066524-19.144028-8.139587-7.972595-14.617258-17.233125-19.352017-27.945581-4.650764-10.63046-6.976646-21.800893-6.976646-33.67629 0-13.288325 2.409878-25.123724 7.060641-35.920175 4.815755-11.127435 11.210431-20.926937 19.268022-29.481503 7.888599-8.346576 17.274123-14.825247 28.568549-19.641003 11.210431-4.692762 22.921836-7.060641 35.545195-7.060641 13.204329 0 25.080726 2.36688 35.877178 7.060641 11.045439 4.815755 20.67895 11.377422 29.233516 19.88899 8.47057 8.595564 15.032237 18.272072 19.931988 29.317511 4.650764 10.795452 7.058642 22.630851 7.058641 35.83618l-0.081996 87.823541z m295.572991 298.314851l-174.820123-0.082996V424.923422l174.903119 0.082996-0.082996 175.690078z m212.856191 121.710819c11.876397 0 23.088828 2.282884 33.719287 6.975646 10.795452 4.856753 20.014984 11.170433 28.069575 19.144028 7.890599 7.889599 14.117283 17.356119 19.020034 28.402558 4.649764 10.961443 7.057642 22.297868 7.057642 34.174264 0 12.582361-2.406878 24.166773-7.057642 35.04822-4.901751 11.211431-11.295426 20.926937-19.437013 29.522501-7.889599 8.47157-17.105131 15.198228-27.986579 20.141977-10.63046 4.939749-21.591904 7.390625-33.385304 7.390625-12.623359 0-24.334764-2.36788-35.547195-7.142637-11.294426-4.73376-20.67895-11.212431-28.568549-19.561007-7.973595-8.592564-14.365271-18.435064-19.182026-29.93848-4.818755-11.126435-7.061641-22.796842-7.061642-35.296207v-88.860488h90.359412z m80.972888-474.006929c-4.815755 10.881447-11.129435 20.141977-19.020034 28.069575-8.055591 7.972595-17.274123 14.286275-28.152571 19.102029-10.63046 4.691762-21.759895 6.977646-33.636292 6.977646h-90.440407l0.082996-87.82554c0-13.288325 2.326882-25.121724 7.060641-35.919176 4.73276-11.211431 11.212431-20.886939 19.268022-29.482503 7.807604-8.346576 17.191127-14.823247 28.485553-19.641002 10.713456-4.52477 21.925887-6.89365 33.967275-7.058642h1.57692c11.794401 0 22.923836 2.448876 33.471301 7.391625 10.795452 5.023745 20.014984 11.667408 27.987578 20.139977 8.137587 8.596563 14.533262 18.395066 19.350018 29.607496 4.650764 10.879448 6.975646 22.380863 7.057641 34.963225-0.082996 12.001391-2.406878 23.04483-7.058641 33.67529" fill="#fff" p-id="7423"></path></svg>